<?xml version="1.0" encoding="UTF-8" standalone="no"?><!DOCTYPE svg PUBLIC "-//W3C//DTD SVG 1.1//EN" "http://www.w3.org/Graphics/SVG/1.1/DTD/svg11.dtd"><svg width="100%" height="100%" viewBox="0 0 200 200" version="1.1" xmlns="http://www.w3.org/2000/svg" xmlns:xlink="http://www.w3.org/1999/xlink" xml:space="preserve" xmlns:serif="http://www.serif.com/" style="fill-rule:evenodd;clip-rule:evenodd;stroke-linejoin:round;stroke-miterlimit:2;"><path d="M200,26.087l0,147.826c0,14.398 -11.689,26.087 -26.087,26.087l-147.826,0c-14.398,0 -26.087,-11.689 -26.087,-26.087l-0,-147.826c-0,-14.398 11.689,-26.087 26.087,-26.087l147.826,0c14.398,0 26.087,11.689 26.087,26.087Z" style="fill:#ecece5;"/><g><path d="M13.853,105.661c-1.013,1.014 -2.659,1.014 -3.672,0l-3.825,-3.825c-1.014,-1.014 -1.014,-2.658 -0,-3.672l3.825,-3.825c1.013,-1.014 2.659,-1.014 3.672,-0l0.153,-0.153c-1.013,-1.014 -1.013,-2.659 0,-3.673l7.651,-7.651c1.013,-1.013 2.659,-1.013 3.672,0l0.153,-0.153c-1.013,-1.013 -1.013,-2.658 0,-3.672l7.651,-7.651c1.014,-1.013 2.659,-1.013 3.673,0l0.153,-0.153c-1.014,-1.013 -1.014,-2.659 -0,-3.672l7.65,-7.651c1.014,-1.013 2.659,-1.013 3.672,0l0.153,-0.153c-1.013,-1.013 -1.013,-2.658 0,-3.672l7.651,-7.651c1.014,-1.013 2.659,-1.013 3.673,0l0.152,-0.153c-1.013,-1.013 -1.013,-2.658 0,-3.672l7.651,-7.651c1.014,-1.013 2.659,-1.013 3.672,0l0.154,-0.153c-1.014,-1.013 -1.014,-2.659 -0,-3.672l7.65,-7.651c1.014,-1.013 2.659,-1.013 3.673,0l0.153,-0.153c-1.014,-1.013 -1.014,-2.659 -0,-3.672l7.65,-7.651c1.014,-1.013 2.659,-1.013 3.673,0l0.153,-0.153c-1.014,-1.013 -1.014,-2.659 -0,-3.672l3.825,-3.825c1.014,-1.014 2.658,-1.014 3.672,-0l3.825,3.825c1.014,1.013 1.014,2.659 0,3.672l0.153,0.153c1.014,-1.013 2.659,-1.013 3.673,0l7.651,7.651c1.013,1.013 1.013,2.659 -0,3.672l0.153,0.153c1.013,-1.013 2.658,-1.013 3.672,0l7.651,7.651c1.013,1.014 1.013,2.659 -0,3.673l0.153,0.153c1.013,-1.014 2.659,-1.014 3.672,-0l7.651,7.65c1.013,1.014 1.013,2.659 -0,3.672l0.153,0.153c1.013,-1.013 2.658,-1.013 3.672,0l7.651,7.651c1.013,1.014 1.013,2.659 -0,3.673l0.153,0.152c1.013,-1.013 2.658,-1.013 3.672,0l7.651,7.651c1.013,1.014 1.013,2.659 -0,3.672l0.153,0.154c1.013,-1.014 2.659,-1.014 3.672,-0l7.651,7.65c1.013,1.014 1.013,2.659 -0,3.673l0.153,0.153c1.013,-1.014 2.659,-1.014 3.672,-0l7.651,7.65c1.013,1.014 1.013,2.659 -0,3.673l0.153,0.153c1.013,-1.014 2.659,-1.014 3.672,-0l3.825,3.825c1.014,1.014 1.014,2.658 0,3.672l-3.825,3.825c-1.013,1.014 -2.659,1.014 -3.672,0l-0.153,0.153c1.013,1.014 1.013,2.659 -0,3.673l-7.651,7.651c-1.013,1.013 -2.659,1.013 -3.672,-0l-0.153,0.153c1.013,1.013 1.013,2.658 -0,3.672l-7.651,7.651c-1.014,1.013 -2.659,1.013 -3.673,-0l-0.153,0.153c1.014,1.013 1.014,2.659 0,3.672l-7.65,7.651c-1.014,1.013 -2.659,1.013 -3.672,-0l-0.153,0.153c1.013,1.013 1.013,2.658 -0,3.672l-7.651,7.651c-1.014,1.013 -2.659,1.013 -3.673,-0l-0.152,0.153c1.013,1.013 1.013,2.658 -0,3.672l-7.651,7.651c-1.014,1.013 -2.659,1.013 -3.672,-0l-0.154,0.153c1.014,1.013 1.014,2.659 0,3.672l-7.65,7.651c-1.014,1.013 -2.659,1.013 -3.673,-0l-0.153,0.153c1.014,1.013 1.014,2.659 0,3.672l-7.65,7.651c-1.014,1.013 -2.659,1.013 -3.673,-0l-0.153,0.153c1.014,1.013 1.014,2.659 0,3.672l-3.825,3.825c-1.014,1.014 -2.658,1.014 -3.672,0l-3.825,-3.825c-1.014,-1.013 -1.014,-2.659 -0,-3.672l-0.153,-0.153c-1.014,1.013 -2.659,1.013 -3.673,-0l-7.651,-7.651c-1.013,-1.013 -1.013,-2.659 0,-3.672l-0.153,-0.153c-1.013,1.013 -2.658,1.013 -3.672,-0l-7.651,-7.651c-1.013,-1.014 -1.013,-2.659 0,-3.673l-0.153,-0.153c-1.013,1.014 -2.659,1.014 -3.672,0l-7.651,-7.65c-1.013,-1.014 -1.013,-2.659 0,-3.672l-0.153,-0.153c-1.013,1.013 -2.658,1.013 -3.672,-0l-7.651,-7.651c-1.013,-1.014 -1.013,-2.659 0,-3.673l-0.153,-0.152c-1.013,1.013 -2.658,1.013 -3.672,-0l-7.651,-7.651c-1.013,-1.014 -1.013,-2.659 0,-3.672l-0.153,-0.154c-1.013,1.014 -2.659,1.014 -3.672,0l-7.651,-7.65c-1.013,-1.014 -1.013,-2.659 0,-3.673l-0.153,-0.153c-1.013,1.014 -2.659,1.014 -3.672,0l-7.651,-7.65c-1.013,-1.014 -1.013,-2.659 0,-3.673l-0.153,-0.153Zm20.657,-11.782l-0.306,0.307c1.014,1.013 1.014,2.658 0,3.672l-2.142,2.142l2.142,2.142c1.014,1.014 1.014,2.659 0,3.672l0.306,0.307c1.014,-1.014 2.659,-1.014 3.673,-0l7.956,7.956c1.014,1.014 1.014,2.659 0,3.673l0.306,0.306c1.014,-1.014 2.659,-1.014 3.673,-0l7.956,7.956c1.014,1.014 1.014,2.659 0,3.673l0.306,0.306c1.014,-1.014 2.659,-1.014 3.673,-0l7.956,7.956c1.014,1.014 1.014,2.659 0,3.673l0.306,0.306c1.014,-1.014 2.659,-1.014 3.673,-0l7.956,7.956c1.014,1.014 1.014,2.659 0,3.673l0.306,0.306c1.014,-1.014 2.659,-1.014 3.673,-0l7.956,7.956c1.014,1.014 1.014,2.659 0,3.673l0.307,0.306c1.013,-1.014 2.658,-1.014 3.672,-0l2.142,2.142l2.142,-2.142c1.014,-1.014 2.659,-1.014 3.672,-0l0.307,-0.306c-1.014,-1.014 -1.014,-2.659 -0,-3.673l7.956,-7.956c1.014,-1.014 2.659,-1.014 3.673,-0l0.306,-0.306c-1.014,-1.014 -1.014,-2.659 -0,-3.673l7.956,-7.956c1.014,-1.014 2.659,-1.014 3.673,-0l0.306,-0.306c-1.014,-1.014 -1.014,-2.659 -0,-3.673l7.956,-7.956c1.014,-1.014 2.659,-1.014 3.673,-0l0.306,-0.306c-1.014,-1.014 -1.014,-2.659 -0,-3.673l7.956,-7.956c1.014,-1.014 2.659,-1.014 3.673,-0l0.306,-0.306c-1.014,-1.014 -1.014,-2.659 -0,-3.673l7.956,-7.956c1.014,-1.014 2.659,-1.014 3.673,-0l0.306,-0.307c-1.014,-1.013 -1.014,-2.658 -0,-3.672l2.142,-2.142l-2.142,-2.142c-1.014,-1.014 -1.014,-2.659 -0,-3.672l-0.306,-0.307c-1.014,1.014 -2.659,1.014 -3.673,0l-7.956,-7.956c-1.014,-1.014 -1.014,-2.659 -0,-3.673l-0.306,-0.306c-1.014,1.014 -2.659,1.014 -3.673,0l-7.956,-7.956c-1.014,-1.014 -1.014,-2.659 -0,-3.673l-0.306,-0.306c-1.014,1.014 -2.659,1.014 -3.673,0l-7.956,-7.956c-1.014,-1.014 -1.014,-2.659 -0,-3.673l-0.306,-0.306c-1.014,1.014 -2.659,1.014 -3.673,0l-7.956,-7.956c-1.014,-1.014 -1.014,-2.659 -0,-3.673l-0.306,-0.306c-1.014,1.014 -2.659,1.014 -3.673,0l-7.956,-7.956c-1.014,-1.014 -1.014,-2.659 -0,-3.673l-0.307,-0.306c-1.013,1.014 -2.658,1.014 -3.672,0l-2.142,-2.142l-2.142,2.142c-1.014,1.014 -2.659,1.014 -3.672,0l-0.307,0.306c1.014,1.014 1.014,2.659 0,3.673l-7.956,7.956c-1.014,1.014 -2.659,1.014 -3.673,0l-0.306,0.306c1.014,1.014 1.014,2.659 0,3.673l-7.956,7.956c-1.014,1.014 -2.659,1.014 -3.673,0l-0.306,0.306c1.014,1.014 1.014,2.659 0,3.673l-7.956,7.956c-1.014,1.014 -2.659,1.014 -3.673,0l-0.306,0.306c1.014,1.014 1.014,2.659 0,3.673l-7.956,7.956c-1.014,1.014 -2.659,1.014 -3.673,0l-0.306,0.306c1.014,1.014 1.014,2.659 0,3.673l-7.956,7.956c-1.014,1.014 -2.659,1.014 -3.673,0Z" style="fill:#8ba657;"/><path d="M71.651,74.486l-2.597,0l0,-2.835l2.597,-0l-0,-2.597l2.835,0l0,2.597l5.67,0l-0,-2.597l5.67,0l-0,2.597l5.669,0l0,-2.597l5.67,0l0,2.597l5.67,0l-0,-2.597l5.67,0l-0,2.597l5.669,0l0,-2.597l5.67,0l0,2.597l5.67,0l-0,-2.597l5.432,0l-0,5.432l-2.597,0l-0,5.67l2.597,-0l-0,5.67l-2.597,-0l-0,5.669l2.597,0l-0,5.67l-2.597,0l-0,5.67l2.597,-0l-0,5.67l-2.597,-0l-0,5.669l2.597,0l-0,5.67l-2.597,0l-0,5.67l2.597,-0l-0,5.432l-5.432,-0l-0,-2.597l-5.67,-0l0,2.597l-5.67,-0l0,-2.597l-5.669,-0l-0,2.597l-5.67,-0l-0,-2.597l-5.67,-0l0,2.597l-5.67,-0l0,-2.597l-5.669,-0l-0,2.597l-5.67,-0l-0,-2.597l-5.67,-0l0,2.597l-5.432,-0l0,-5.432l2.597,-0l0,-5.67l-2.597,0l0,-5.67l2.597,0l0,-5.669l-2.597,-0l0,-5.67l2.597,-0l0,-5.67l-2.597,0l0,-5.67l2.597,0l0,-5.669l-2.597,-0l0,-5.67l2.597,-0l0,-5.67Zm14.529,3.402l-5.528,-0l-0,2.597l-0.167,-0l-0,0.167l-2.597,-0l-0,5.528l2.597,-0l-0,5.528l-2.597,-0l-0,5.528l2.597,-0l-0,5.528l-2.597,0l-0,5.528l2.597,0l-0,5.528l-2.597,0l-0,5.528l2.597,0l-0,0.167l0.167,0l-0,2.597l5.528,0l-0,-2.597l5.528,0l-0,2.597l5.528,0l-0,-2.597l5.528,0l0,2.597l5.528,0l0,-2.597l5.528,0l0,2.597l5.528,0l0,-2.597l0.167,0l0,-0.167l2.597,0l0,-5.528l-2.597,0l0,-5.528l2.597,0l0,-5.528l-2.597,0l0,-5.528l2.597,-0l0,-5.528l-2.597,-0l0,-5.528l2.597,-0l0,-5.528l-2.597,-0l0,-0.167l-0.167,-0l0,-2.597l-5.528,-0l0,2.597l-5.528,-0l0,-2.597l-5.528,-0l0,2.597l-5.528,-0l-0,-2.597l-5.528,-0l-0,2.597l-5.528,-0l-0,-2.597Z" style="fill:#8ba657;"/><g><path d="M156.627,35.045l-14.573,-14.573l37.474,-0l0,37.474l-14.573,-14.573l8.328,-0l-0,-5.889l-10.767,0l-0,-10.767l-5.889,0l0,8.328Zm16.656,-8.328l-6.663,0l0,6.663l6.663,-0l-0,-6.663Z" style="fill:#8ba657;"/><path d="M43.373,35.045l14.573,-14.573l-37.474,-0l-0,37.474l14.573,-14.573l-8.328,-0l0,-5.889l10.767,0l0,-10.767l5.889,0l-0,8.328Zm-16.656,-8.328l6.663,0l-0,6.663l-6.663,-0l0,-6.663Z" style="fill:#8ba657;"/><path d="M156.627,164.955l-14.573,14.573l37.474,0l0,-37.474l-14.573,14.573l8.328,0l-0,5.889l-10.767,-0l-0,10.767l-5.889,-0l0,-8.328Zm16.656,8.328l-6.663,-0l0,-6.663l6.663,0l-0,6.663Z" style="fill:#8ba657;"/><path d="M43.373,164.955l14.573,14.573l-37.474,0l-0,-37.474l14.573,14.573l-8.328,0l0,5.889l10.767,-0l0,10.767l5.889,-0l-0,-8.328Zm-16.656,8.328l6.663,-0l-0,-6.663l-6.663,0l0,6.663Z" style="fill:#8ba657;"/></g><g><path d="M97.133,55.431l-10.687,0.045l13.799,-13.799l13.683,13.683l-10.687,0.045l3.066,-3.066l-2.15,-2.15l-3.965,3.964l-3.931,-3.931l-2.168,2.168l3.04,3.041Zm3.092,-9.174l-2.453,2.453l2.433,2.433l2.453,-2.453l-2.433,-2.433Z" style="fill:#8ba657;"/><path d="M55.431,97.133l0.045,-10.687l-13.799,13.799l13.683,13.683l0.045,-10.687l-3.066,3.066l-2.15,-2.15l3.964,-3.965l-3.931,-3.931l2.168,-2.168l3.041,3.04Zm-9.174,3.092l2.453,-2.453l2.433,2.433l-2.453,2.453l-2.433,-2.433Z" style="fill:#8ba657;"/><path d="M144.569,102.867l-0.045,10.687l13.799,-13.799l-13.683,-13.683l-0.045,10.687l3.066,-3.066l2.15,2.15l-3.964,3.965l3.931,3.931l-2.168,2.168l-3.041,-3.04Zm9.174,-3.092l-2.453,2.453l-2.433,-2.433l2.453,-2.453l2.433,2.433Z" style="fill:#8ba657;"/><path d="M102.867,144.569l10.687,-0.045l-13.799,13.799l-13.683,-13.683l10.687,-0.045l-3.066,3.066l2.15,2.15l3.965,-3.964l3.931,3.931l2.168,-2.168l-3.04,-3.041Zm-3.092,9.174l2.453,-2.453l-2.433,-2.433l-2.453,2.453l2.433,2.433Z" style="fill:#8ba657;"/></g></g></svg>